<svg width="18" height="17" viewBox="0 0 18 17" fill="none" xmlns="http://www.w3.org/2000/svg">
<path d="M15.466 0.215001L0.842157 8.18051C-0.367125 8.84126 -0.251118 10.5313 1.04253 11.0327L5.06058 12.6032V15.4056C5.06058 16.9462 7.14167 17.5804 8.10488 16.3552L9.6446 14.3929L13.5783 15.9269C13.7857 16.0066 14.0036 16.0464 14.2216 16.0464C14.5099 16.0464 14.7946 15.9767 15.0512 15.8405C15.5012 15.6015 15.8105 15.1765 15.8914 14.695L17.9795 1.83865C18.1939 0.507191 16.6823 -0.445748 15.466 0.215001ZM6.74795 15.4056V13.2606L8.03457 13.762L6.74795 15.4056ZM14.2216 14.4526L8.81498 12.3442L13.7435 5.62716C14.1196 5.11251 13.4095 4.51485 12.9104 4.92325L5.47539 11.0426L1.68584 9.56177L16.3097 1.59294L14.2216 14.4526Z" fill="#046BA5"/>
</svg>
